<svg id="Livello_1" data-name="Livello 1" xmlns="http://www.w3.org/2000/svg" viewBox="0 0 958.15 254.67"><defs><style>.cls-1{fill:#d81f26;}</style></defs><path class="cls-1" d="M120.92,277.48q28.58-3.11,57.16-5.93c33.93-4.07,58,12.61,60.58,47.35.31,3.65.46,5.47.77,9.12,1.75,18.18-2.31,38-20.12,46.7l.05.65c21.53,4.72,30.11,25.13,31.54,45.17l1.63,19.54c3,33.07-16.76,56.65-50.05,59q-28.24,2.78-56.45,5.84ZM182.7,364.7c14-1.24,22.74-11.89,20-26.21-.47-5.08-.71-7.62-1.18-12.69-.13-12.81-7.94-23-21.33-21.62-7.25.71-10.87,1.07-18.12,1.81l6.12,60.16C174,365.56,176.9,365.27,182.7,364.7Zm16.64,101.83c12.91-1.1,19-11.8,16.69-24.23-.73-7.94-1.09-11.92-1.83-19.86-.86-16.55-9.13-27.48-26.3-25.41-6.56.64-9.83,1-16.39,1.63q3.56,35,7.1,69.92C186.9,467.74,191.05,467.33,199.34,466.53Z" transform="translate(-120.92 -250.23)"/><path class="cls-1" d="M271.06,438.58l-9.45-119.91c-3.57-34.79,19.19-59,53.14-61.51,34.41-2.56,59.13,19.59,60.7,54q3.15,60.06,6.28,120.12c2,33-17.92,58.79-51.59,60.66C296.91,493.84,272.85,472.1,271.06,438.58Zm74.35-2.9q-3.81-62.31-7.6-124.63c.33-12.65-8.3-22-20.92-21.27-13.31.81-18.93,11.27-18,23.82q4.36,62.28,8.72,124.55c.77,12.18,7.24,22.14,20.35,21.23C340.48,458.51,347.19,447.8,345.41,435.68Z" transform="translate(-120.92 -250.23)"/><path class="cls-1" d="M403.61,430.24q-2.82-60.08-5.65-120.15c-2.46-34.87,21-58.35,55-59.8,34.47-1.46,58.46,21.47,58.95,56q1.23,60.12,2.48,120.25c.92,33-19.76,58.2-53.47,59C427.69,486.3,404.35,463.79,403.61,430.24Zm74.37-.55q-1.82-62.4-3.65-124.8c.73-12.63-7.59-22.3-20.23-21.93-13.32.39-19.27,10.68-18.7,23.24q2.4,62.39,4.79,124.77c.38,12.19,6.52,22.36,19.66,21.86C472.35,452.36,479.38,441.86,478,429.69Z" transform="translate(-120.92 -250.23)"/><path class="cls-1" d="M536.39,251.54q19-.28,38-.4.58,98.06,1.19,196.11,29.88-.19,59.76.07L635.11,480q-47.67-.31-95.34.31Q538.09,365.92,536.39,251.54Z" transform="translate(-120.92 -250.23)"/><path class="cls-1" d="M655.3,251.4q50.31.69,100.57,2.4l-1.15,32.67q-31-1.07-62.09-1.76-.66,31.86-1.34,63.72,24,.52,48,1.29l-1,32.67q-23.82-.78-47.63-1.28l-2.1,99.67q-18-.37-36-.6Q653.89,365.79,655.3,251.4Z" transform="translate(-120.92 -250.23)"/><path class="cls-1" d="M774.18,254.49q19,.75,38,1.67Q807.44,354.1,802.71,452q29.87,1.44,59.7,3.32l-2,32.62q-47.61-2.91-95.24-4.87Q769.65,368.79,774.18,254.49Z" transform="translate(-120.92 -250.23)"/><path class="cls-1" d="M893,260.81q19,1.28,37.95,2.7L913.67,491.66q-18-1.35-36-2.56Z" transform="translate(-120.92 -250.23)"/><path class="cls-1" d="M982.63,380q-15.4-57.57-31.71-114.89,20,1.6,40,3.4,9.42,37.9,18.48,75.89l.68.06q16.44-35.55,33.2-70.95,17.91,1.81,35.81,3.78-26.85,53.22-52.81,106.85,15.39,60.28,29.76,120.8-18.91-2.08-37.84-4-9.09-41-18.59-82l-.67-.06q-17.35,38.39-34.29,76.95-17-1.47-34-2.85Q956.16,436.25,982.63,380Z" transform="translate(-120.92 -250.23)"/></svg>